<?xml version="1.0" encoding="UTF-8"?>
<svg width="68px" height="68px" viewBox="0 0 68 68" version="1.1" xmlns="http://www.w3.org/2000/svg" xmlns:xlink="http://www.w3.org/1999/xlink">
    <!-- Generator: Sketch 51.1 (57501) - http://www.bohemiancoding.com/sketch -->
    <title>Group</title>
    <desc>Created with Sketch.</desc>
    <defs>
        <linearGradient x1="14.6450817%" y1="14.6435772%" x2="85.3564228%" y2="85.3564228%" id="linearGradient-1">
            <stop stop-color="#848484" offset="0%"></stop>
            <stop stop-color="#989898" offset="50.1961%"></stop>
            <stop stop-color="#848484" offset="100%"></stop>
        </linearGradient>
        <linearGradient x1="14.64431%" y1="14.64431%" x2="85.35569%" y2="85.35569%" id="linearGradient-2">
            <stop stop-color="#ADADAD" offset="0%"></stop>
            <stop stop-color="#D1D1D1" offset="50.1961%"></stop>
            <stop stop-color="#ADADAD" offset="100%"></stop>
        </linearGradient>
        <linearGradient x1="81.6165542%" y1="89.094838%" x2="18.3841453%" y2="10.9057809%" id="linearGradient-3">
            <stop stop-color="#848484" offset="0%"></stop>
            <stop stop-color="#989898" offset="50.1961%"></stop>
            <stop stop-color="#848484" offset="100%"></stop>
        </linearGradient>
    </defs>
    <g id="Page-1-Copy-2" stroke="none" stroke-width="1" fill="none" fill-rule="evenodd">
        <g id="Garmentoria-LOGO_mar18" transform="translate(-62.000000, -178.000000)">
            <g id="Group" transform="translate(57.000000, 176.000000)">
                <rect id="Rectangle-path" x="0.868" y="0.22" width="75.837" height="71.479"></rect>
                <circle id="Oval" fill="url(#linearGradient-1)" cx="38.786" cy="35.96" r="33.233"></circle>
                <circle id="Oval" fill="url(#linearGradient-2)" cx="38.786" cy="35.96" r="30.237"></circle>
                <path d="M33.893,50.838 C31.352,50.9 22.783,54.363 18.576,52.098 C17.418,51.475 16.285,49.734 16.734,48.027 C17.396,45.511 21.192,44.923 24.005,44.343 C27.123,43.701 30.27,43.264 33.311,42.792 C30.034,42.65 26.227,42.704 22.357,42.501 C18.977,42.324 14.79,42.187 13.535,40.077 C13.047,39.257 13.008,38.093 13.341,37.266 C14.319,34.847 18.699,34.58 22.066,34.358 C25.913,34.105 29.69,34.188 33.505,34.164 C30.114,33.746 26.542,33.56 22.842,33.195 C19.052,32.82 12.401,32.397 14.214,27.378 C15.546,23.691 22.948,24.342 28.076,24.761 C32.741,25.142 36.848,25.657 40.679,25.827 C38.944,23.909 35.553,21.216 36.51,17.102 C36.864,15.584 38.167,13.289 40.097,13.128 C42.065,12.963 44.135,15.456 45.138,16.327 C48.14,18.931 51.425,20.727 55.705,22.143 C57.643,22.785 59.697,23.657 61.037,24.955 C64.298,28.113 65.483,34.494 65.108,40.077 C64.448,49.914 55.808,53.462 46.689,55.2 C43.66,55.778 40.881,56.861 38.255,57.721 C35.413,58.652 31.551,60.298 27.592,59.854 C26.041,59.68 24.27,58.634 24.296,56.946 C24.323,55.14 26.651,53.906 28.173,53.165 C28.74,52.889 33.71,50.838 33.893,50.838 Z" id="Shape" fill="url(#linearGradient-3)"></path>
                <path d="M27.979,54.328 C26.891,54.914 25.137,55.694 25.168,57.042 C25.209,58.824 27.416,59.174 29.918,58.981 C32.573,58.777 35.039,57.878 37.383,57.139 C39.743,56.396 41.901,55.574 44.46,54.91 C46.961,54.26 49.593,53.836 51.924,53.068 C54.432,52.241 56.796,51.062 58.419,49.966 C61.822,47.667 64.333,44.008 64.333,38.527 C64.333,33.384 63.185,27.81 59.97,25.149 C58.531,23.957 56.537,23.336 54.639,22.725 C49.562,21.093 46.176,18.424 42.618,15.357 C41.904,14.742 41.367,13.859 40.097,14 C39.17,14.104 38.146,15.274 37.674,16.23 C35.482,20.668 40.339,24.121 42.618,26.215 C43.02,32.994 45.42,37.623 51.827,38.527 C52.08,38.562 54.717,38.366 54.639,39.108 C54.577,39.693 53.061,39.491 52.215,39.399 C44.982,38.617 42.319,33.775 41.745,26.7 C37.856,26.575 33.725,26.105 29.143,25.73 C25.489,25.432 19.619,24.612 16.637,26.021 C15.553,26.533 14.394,28.116 14.989,29.802 C15.524,31.315 18.232,31.671 19.933,31.935 C25.316,32.768 30.84,32.961 36.22,33.485 C37.253,33.586 38.363,33.578 39.225,34.067 C37.882,40.33 39.335,47.677 41.551,51.905 C41.824,52.425 42.697,53.201 42.133,53.843 C41.238,53.647 40.943,52.617 40.582,51.905 C40.169,51.089 39.85,50.208 39.419,49.481 C35.747,51.187 31.577,52.392 27.979,54.328 Z M24.974,35.037 C20.661,35.233 16.105,35.06 14.117,37.751 C13.672,39.208 14.496,40.096 15.377,40.562 C17.64,41.759 21.871,41.779 26.041,41.822 C30.386,41.868 34.863,41.9 37.868,42.016 C37.864,39.778 37.822,36.851 38.255,34.746 C34.28,35.19 29.447,34.834 24.974,35.037 Z M21.775,45.603 C20.334,46.01 18.196,46.788 17.704,47.833 C17.229,48.841 17.781,50.315 18.285,50.838 C19.068,51.65 20.773,51.908 22.066,51.905 C28.271,51.889 33.678,49.463 39.225,48.705 C38.726,46.91 38.233,45.108 38.062,42.986 C33.014,43.959 26.887,44.159 21.775,45.603 Z" id="Shape" fill="#FEFEFE"></path>
            </g>
        </g>
    </g>
</svg>