<?xml version="1.0" encoding="UTF-8"?>
<svg width="67px" height="67px" viewBox="0 0 67 67" version="1.1" xmlns="http://www.w3.org/2000/svg" xmlns:xlink="http://www.w3.org/1999/xlink">
    <!-- Generator: Sketch 51.2 (57519) - http://www.bohemiancoding.com/sketch -->
    <title>Group</title>
    <desc>Created with Sketch.</desc>
    <defs>
        <linearGradient x1="14.6435772%" y1="14.6435772%" x2="85.3549183%" y2="85.3564228%" id="linearGradient-1">
            <stop stop-color="#848484" offset="0%"></stop>
            <stop stop-color="#989898" offset="50.1961%"></stop>
            <stop stop-color="#848484" offset="100%"></stop>
        </linearGradient>
        <linearGradient x1="14.64431%" y1="14.64431%" x2="85.35569%" y2="85.35569%" id="linearGradient-2">
            <stop stop-color="#ADADAD" offset="0%"></stop>
            <stop stop-color="#D1D1D1" offset="50.1961%"></stop>
            <stop stop-color="#ADADAD" offset="100%"></stop>
        </linearGradient>
        <linearGradient x1="83.7903423%" y1="86.92127%" x2="16.2110704%" y2="13.0787632%" id="linearGradient-3">
            <stop stop-color="#848484" offset="0%"></stop>
            <stop stop-color="#989898" offset="50.1961%"></stop>
            <stop stop-color="#848484" offset="100%"></stop>
        </linearGradient>
    </defs>
    <g id="Page-1" stroke="none" stroke-width="1" fill="none" fill-rule="evenodd">
        <g id="Garmentoria-LOGO_mar18" transform="translate(-221.000000, -250.000000)">
            <g id="Group" transform="translate(216.000000, 247.000000)">
                <rect id="Rectangle-path" x="0.862" y="0.699" width="75.837" height="71.479"></rect>
                <circle id="Oval" fill="url(#linearGradient-1)" cx="38.78" cy="36.439" r="33.233"></circle>
                <circle id="Oval" fill="url(#linearGradient-2)" cx="38.78" cy="36.439" r="30.237"></circle>
                <path d="M40.7743398,11.409668 C40.9237979,11.3749702 42.7940165,10.1279297 43.562255,10.6953125 C44.3304935,11.2626953 44.4662593,14.369485 44.6560432,15.9624023 C44.8909202,17.9338017 44.4870889,20.0443243 45.2519893,21.5397949 C46.0545526,23.108901 46.9199376,24.4920506 47.9603474,25.3139648 C49.0319811,26.1605457 50.2787489,26.4278983 51.0982162,26.8188477 C52.7132743,27.5893555 55.7057417,29.0650603 57.0786891,31.2286238 C58.4135985,33.3322449 59.3489571,35.9649276 59.529805,38.878418 C60.3294759,51.755418 51.0715007,55.898 40.9096825,58.348 C38.9555808,58.8191479 36.5955594,59.2179482 34.5654691,59.1679688 C31.7739927,59.0992445 29.5786073,58.0684284 29.6683087,54.179 C27.1873296,53.486 24.9002708,51.296 25.9858241,47.975 C23.8128765,47.7392595 22.1302869,46.1840407 21.8646412,44.1711426 C21.8157789,43.800895 21.7498814,43.065607 22.0044762,42.4353027 C22.2206434,41.9001342 22.8297988,41.3947807 23.2341947,40.9580078 C23.883145,40.257101 25.6694776,40.0857872 26.0509067,39.5595703 C24.9410315,39.3803029 23.1550039,38.9057434 21.8241305,38.4172363 C20.3190533,37.8647864 20.4979478,35.5690772 20.6973969,34.6557617 C20.8448919,33.9803542 21.3201009,32.6512237 23.2107669,31.5839844 C24.6959955,30.7456055 31.1951002,29.6880851 33.5312268,29.4880371 C35.2692136,28.97172 37.7416523,29.3149414 37.9793474,28.7915039 C38.1911591,28.3250653 37.8067978,27.0675712 37.6066981,25.6096191 C37.4537038,24.4948838 37.5256213,23.3109946 37.3548486,21.9873047 C37.075856,19.8247844 37.6934208,18.082119 38.0271793,16.4401855 C38.4413155,14.402832 38.4071499,11.9592285 40.7743398,11.409668 Z" id="Shape" fill="url(#linearGradient-3)"></path>
                <path d="M27.4766131,39.153 C28.8853288,39.024 30.3669212,38.2577215 31.5053738,37.796 C34.3372915,36.6474609 36.7271772,35.8596191 40.2008453,34.923584 C40.5983868,33.4736328 40.5061599,32.8592994 40.460016,32.1713867 C40.4191091,31.5615458 39.9392342,30.5549316 38.8964505,30.0891113 C33.0455014,30.3641113 22.9162104,31.0351563 21.4231724,33.7729492 C21.268451,35.2302246 20.6403148,36.1499803 21.7435972,37.1948242 C22.9040177,38.2937798 25.2077747,39.3623605 27.4766131,39.153 Z M22.5942198,42.934 C22.387305,45.435 24.3076924,47.2369023 26.3708434,47.6499023 C27.7402798,44.9479023 37.1034286,40.4352227 39.792322,39.0532227 C39.8061096,38.6514031 40.3996264,37.7082869 40.3645963,37.0859375 C40.3289427,36.4525111 39.6644054,36.1403386 39.6410171,35.7961426 C38.2361549,35.9145627 33.5267635,37.7954857 30.0446245,39.1203613 C26.5624855,40.445237 22.7307939,41.2864873 22.5942198,42.934 Z M30.8650876,54.3547363 C31.8913744,50.7252297 36.5729438,48.7402344 38.6941412,45.9091797 C39.5089454,44.8217017 40.8099697,44.4326172 41.5081687,43.6318359 C41.8739849,42.3586426 41.7864994,41.2832168 41.4896216,40.7722168 C41.0627953,40.2382813 40.2603911,40.0754395 40.1405674,40.0446777 C39.3407536,39.8393457 34.9705349,43.0047168 34.3787784,42.8347168 C32.1706871,44.0167168 28.6996389,45.522498 27.5681046,48.010498 C26.4455665,50.478498 27.7163834,53.7327363 30.8650876,54.3547363 Z M41.1142878,38.7834473 C41.2462335,38.7534473 42.2992279,40.7197422 42.5021444,40.7607422 C43.9955298,41.7597422 43.2227307,42.595 45.5597689,42.74 C46.1125414,42.774 47.3640264,42.418 47.4979713,43.225 C47.1351206,43.869 46.0265768,43.661 45.3668483,43.613 C43.0018216,43.438 44.6301515,48.727 42.7499252,51.756 C42.0322206,52.913 41.0846105,54.421 40.1340017,53.889 C40.1629898,53.161 41.0606204,52.761 41.5874036,52.047 C42.3820766,50.97 43.1917434,49.243 43.3316858,47.878 C43.7884978,43.421 40.7672268,44.6788276 38.5738293,47.5087891 C36.2310435,50.5314941 32.2375697,52.1835938 31.4781166,54.8251953 C30.7186635,57.4667969 32.5781112,58.781 35.676836,58.541 C39.1074242,58.277 42.2691231,57.251 45.5597689,56.118 C52.8827553,53.597 58.6703735,49.979 58.6423851,40.317 C58.6233929,33.878 56.5861401,30.15053 52.9343747,28.5498047 C51.1387269,27.7626953 48.4840391,26.9210902 46.9553899,26.0063477 C45.4807583,25.1239292 45.2160733,22.8807967 44.7551235,21.5805664 C44.4583482,20.7434337 43.916965,19.9555342 43.9317319,17.6777344 C43.939593,16.4651529 43.3884967,15.6972045 43.3964357,14.8547952 C43.4034098,14.1147626 43.815004,12.4990634 43.7467494,12.0219727 C43.6489337,11.3382537 41.5834946,11.1458898 40.678676,12.5424805 C39.8725415,13.7867519 38.5504998,17.652137 38.4105665,19.1923828 C38.3052293,20.3518281 38.316855,22.5698242 38.4701123,25.9619141 C38.6233695,29.3540039 40.7834133,31.6088227 40.9522451,32.0651855 C41.158543,33.2545327 40.6411001,34.7651833 40.6181541,35.7233887 C40.586052,37.0639402 40.9994393,37.7556498 41.1142878,38.7834473 Z" id="Shape" fill="#FEFEFE"></path>
            </g>
        </g>
    </g>
</svg>