<?xml version="1.0" encoding="UTF-8"?>
<svg width="67px" height="68px" viewBox="0 0 67 68" version="1.1" xmlns="http://www.w3.org/2000/svg" xmlns:xlink="http://www.w3.org/1999/xlink">
    <!-- Generator: Sketch 51.2 (57519) - http://www.bohemiancoding.com/sketch -->
    <title>Group</title>
    <desc>Created with Sketch.</desc>
    <defs>
        <linearGradient x1="14.6435772%" y1="14.6435772%" x2="85.3549183%" y2="85.3564228%" id="linearGradient-1">
            <stop stop-color="#848484" offset="0%"></stop>
            <stop stop-color="#989898" offset="50.1961%"></stop>
            <stop stop-color="#848484" offset="100%"></stop>
        </linearGradient>
        <linearGradient x1="14.64431%" y1="14.64431%" x2="85.35569%" y2="85.35569%" id="linearGradient-2">
            <stop stop-color="#ADADAD" offset="0%"></stop>
            <stop stop-color="#D1D1D1" offset="50.1961%"></stop>
            <stop stop-color="#ADADAD" offset="100%"></stop>
        </linearGradient>
        <linearGradient x1="83.7903423%" y1="86.92127%" x2="16.2110704%" y2="13.0787632%" id="linearGradient-3">
            <stop stop-color="#848484" offset="0%"></stop>
            <stop stop-color="#989898" offset="50.1961%"></stop>
            <stop stop-color="#848484" offset="100%"></stop>
        </linearGradient>
    </defs>
    <g id="Page-1" stroke="none" stroke-width="1" fill="none" fill-rule="evenodd">
        <g id="Garmentoria-LOGO_mar18" transform="translate(-297.000000, -178.000000)">
            <g id="Group" transform="translate(292.000000, 176.000000)">
                <rect id="Rectangle-path" x="0.699" y="0.22" width="75.837" height="71.479"></rect>
                <circle id="Oval" fill="url(#linearGradient-1)" cx="38.617" cy="35.96" r="33.233"></circle>
                <circle id="Oval" fill="url(#linearGradient-2)" cx="38.618" cy="35.96" r="30.237"></circle>
                <path d="M36.5555173,28.6219226 C36.5064924,28.4467739 36.4580475,26.6414652 36.4749558,25.5391495 C36.4859457,24.8226732 36.6393766,22.9918042 36.739254,21.8971572 C36.8391315,20.8025101 36.9360108,18.0002683 36.9430134,17.6695628 C36.9558649,17.0626394 37.1360627,15.1718914 36.4433908,13.9623203 C35.7669281,12.7810546 34.0886126,12.4893587 33.2159839,12.5477828 C32.0654435,12.6249836 31.7070036,14.0235066 31.1037178,15.4084228 C30.560281,16.6559483 30.0152055,19.4960818 29.469874,20.8701158 C29.2553192,21.4107148 28.8158209,22.7068506 28.149325,23.6801104 C27.4001581,24.7740916 25.9571945,26.5617261 25.4731284,27.1675754 C24.3762435,28.5404188 21.0900644,30.2062988 20.5635879,30.9591484 C20.0371114,31.711998 18.1316847,34.8486741 17.9621816,37.5787363 C17.9503964,37.7684204 17.8519977,41.1462438 17.8761434,41.3301462 C18.5448392,46.4231879 20.7949078,49.331411 22.5031885,50.930392 C24.2114693,52.5293729 30.8613364,55.8745169 35.8414446,57.074602 C40.3212597,58.1542731 46.8407751,59.5349785 46.6912228,53.0521275 C49.0859893,52.383484 51.2945391,50.2704547 50.2457433,47.0661761 C53.5822069,46.704356 55.6691851,42.6191661 53.3323098,39.3965552 C55.6141884,39.0279812 55.9433594,35.7927246 55.9697266,35.1479492 C55.9960938,34.5031738 55.2729691,31.559915 54.579834,31.2409668 C54.3017109,31.1129876 52.7366013,30.0291577 52.038166,29.8251628 C49.8823747,29.1955118 46.4425431,29.5816603 45.3671083,29.5684024 C44.6812162,29.5599469 40.1456865,29.5528555 38.9294905,29.5368374 C37.4278847,29.5170603 36.5644185,28.6537234 36.5555173,28.6219226 Z" id="Shape" fill="url(#linearGradient-3)"></path>
                <path d="M53.8475416,38.5706406 C53.8002638,38.5841485 53.7481617,38.5918674 53.6902705,38.5918674 C53.5764177,38.6034456 53.4606353,38.607305 53.343888,38.6044105 C52.7331357,38.6497586 51.8966077,38.8330808 52.3848236,39.4814623 C52.5102546,39.6310146 52.5604269,39.6985544 52.6067399,39.7699536 C53.1171474,40.4800858 53.4451977,41.302141 53.5194914,42.2023494 C53.7163215,44.5826431 52.0046713,45.7916046 50.0469834,46.2074564 C49.3773751,46.217105 49.2056312,46.3917435 49.3416755,46.8732054 C50.0904019,49.1328924 49.3098353,51.6569493 46.5040412,52.2107752 C46.0611734,52.2995418 45.8132061,52.3776949 45.8325031,52.8716999 C45.8392571,52.9315208 45.8450462,52.9923066 45.8498705,53.0530924 C46.0746814,56.3017543 43.869991,57.4914187 40.892453,57.2617836 C37.5801107,57.0060974 34.5292438,56.0161576 31.3519811,54.9229786 C24.283464,52.4915476 18.6979268,48.9997426 18.7249427,39.6773276 C18.7325083,36.970911 19.3577512,35.3237239 20.0868146,33.8414599 C21.0313465,31.9211252 21.5703109,31.0857528 23.8263288,29.6225812 C24.8758322,28.9421857 27.1559687,27.1725222 27.8551106,26.301186 C28.5542525,25.4298497 30.1096173,21.1746433 30.353695,20.4633037 C30.7692227,19.2522901 31.2113687,17.2801822 31.8275936,14.7877223 C32.0420079,13.9204755 33.165117,13.3200618 33.9881494,13.2339689 C34.6048228,13.1694621 35.3550581,13.6058863 35.6356557,14.0928205 C35.8970565,14.5464417 36.3481332,16.3410622 36.249996,16.9687719 C36.224105,17.4802109 36.1735038,18.7242408 36.1071346,20.061603 C36.0321522,21.5725255 35.9370435,23.2025773 35.8347038,24.0299169 C35.669357,25.3666219 35.1798841,28.1498561 35.4356653,28.9232037 C35.7367109,29.8334074 37.4150755,30.497922 39.1982644,30.3975735 C40.9814532,30.2972249 48.7338178,30.2970214 49.0300278,30.3230725 C51.7460905,30.5884072 54.7094727,31.9934082 55.2663574,33.958252 C55.28125,35.6872559 54.6320801,37.9291992 53.8475416,38.5706406 Z" id="Shape" fill="#FEFEFE"></path>
            </g>
        </g>
    </g>
</svg>