<?xml version="1.0" encoding="UTF-8"?>
<svg width="67px" height="67px" viewBox="0 0 67 67" version="1.1" xmlns="http://www.w3.org/2000/svg" xmlns:xlink="http://www.w3.org/1999/xlink">
    <!-- Generator: Sketch 51.1 (57501) - http://www.bohemiancoding.com/sketch -->
    <title>Group</title>
    <desc>Created with Sketch.</desc>
    <defs>
        <linearGradient x1="14.6435772%" y1="14.6435772%" x2="85.3549183%" y2="85.3549183%" id="linearGradient-1">
            <stop stop-color="#922F2F" offset="0%"></stop>
            <stop stop-color="#D02424" offset="50.1961%"></stop>
            <stop stop-color="#922F2F" offset="100%"></stop>
        </linearGradient>
        <linearGradient x1="14.64431%" y1="14.64431%" x2="85.35569%" y2="85.35569%" id="linearGradient-2">
            <stop stop-color="#E24A4A" offset="0%"></stop>
            <stop stop-color="#F79191" offset="50.1961%"></stop>
            <stop stop-color="#E24A4A" offset="100%"></stop>
        </linearGradient>
        <linearGradient x1="83.7903423%" y1="86.9219694%" x2="16.2110704%" y2="13.0766774%" id="linearGradient-3">
            <stop stop-color="#922F2F" offset="0%"></stop>
            <stop stop-color="#D02424" offset="50.1961%"></stop>
            <stop stop-color="#922F2F" offset="100%"></stop>
        </linearGradient>
    </defs>
    <g id="Page-1" stroke="none" stroke-width="1" fill="none" fill-rule="evenodd">
        <g id="Garmentoria-LOGO_mar18" transform="translate(-221.000000, -250.000000)">
            <g id="Group" transform="translate(216.000000, 247.000000)">
                <rect id="Rectangle-path" x="0.862" y="0.699" width="75.837" height="71.479"></rect>
                <circle id="Oval" fill="url(#linearGradient-1)" cx="38.78" cy="36.439" r="33.233"></circle>
                <circle id="Oval" fill="url(#linearGradient-2)" cx="38.78" cy="36.439" r="30.237"></circle>
                <path d="M27.233,27.847 C26.231,21.114 29.37,17.698 36.151,18.153 C38.924,18.338 41.676,19.308 44.488,20.382 C47.304,21.458 49.62,22.035 51.856,23.484 C56.046,26.202 59.05,30.952 59.417,36.862 C60.217,49.739 51.068,53.898 40.902,56.348 C36.259,57.467 29.501,58.897 29.656,52.179 C27.174,51.486 24.886,49.296 25.972,45.975 C22.514,45.6 20.352,41.366 22.774,38.026 C20.408,37.644 18.6,36.294 18.508,34.051 C18.334,29.817 23.331,28.181 27.233,27.847 Z" id="Shape" fill="url(#linearGradient-3)"></path>
                <path d="M19.477,32.888 C18.832,35.179 20.937,37.598 23.258,37.153 C23.936,37.024 24.572,36.168 25.197,35.796 C26.409,35.074 27.528,34.722 29.462,34.73 C28.635,32.778 27.868,30.766 27.233,28.622 C24.417,28.897 20.257,30.117 19.477,32.888 Z M22.579,40.934 C22.372,43.435 24.199,44.689 26.263,45.102 C27.633,42.4 29.778,40.474 32.468,39.092 C31.823,38.152 30.583,36.97 30.044,35.602 C26.447,35.325 22.854,37.618 22.579,40.934 Z M27.136,45.199 C26.013,47.667 26.7,50.685 29.85,51.307 C31.218,46.471 34.315,43.363 38.769,41.613 C38.745,40.829 38.484,40.282 38.187,39.771 C37.515,40.092 36.412,40.606 35.182,40.449 C34.356,40.344 33.835,39.844 33.243,39.674 C31.034,40.856 28.268,42.711 27.136,45.199 Z M39.738,31.24 C40.764,34.012 40.17,37.687 38.865,38.995 C38.997,38.965 39.051,38.857 39.254,38.898 C40.748,39.897 43.216,40.595 45.554,40.74 C46.107,40.774 47.359,40.418 47.493,41.225 C47.13,41.869 46.021,41.661 45.361,41.613 C42.995,41.438 40.796,40.764 39.35,39.964 C39.384,40.447 39.617,40.732 39.544,41.322 C45.313,40.414 44.624,46.727 42.743,49.756 C42.025,50.913 41.077,52.421 40.126,51.889 C40.155,51.161 41.053,50.761 41.58,50.047 C42.375,48.97 43.185,47.243 43.325,45.878 C43.782,41.421 39.825,41.648 37.218,43.164 C34.276,44.874 30.808,48.482 30.529,52.179 C30.275,55.536 32.567,56.781 35.667,56.541 C39.099,56.277 42.262,55.251 45.554,54.118 C52.88,51.597 58.67,47.979 58.642,38.317 C58.623,31.878 55.418,26.753 51.274,24.066 C49.713,23.054 47.952,22.573 46.039,21.837 C42.81,20.593 38.696,18.644 34.116,18.928 C27.74,19.324 27.011,25.076 28.784,30.658 C29.13,31.749 29.593,32.817 30.044,33.76 C30.89,35.532 32.211,38.149 34.116,39.189 C36.012,40.225 38.081,38.948 38.769,37.638 C39.932,35.422 39.306,32.119 38.381,30.367 C38.149,29.928 37.409,29.298 37.993,28.817 C38.914,28.954 39.379,30.27 39.738,31.24 Z" id="Shape" fill="#FEFEFE"></path>
            </g>
        </g>
    </g>
</svg>