<?xml version="1.0" encoding="UTF-8"?>
<svg width="67px" height="67px" viewBox="0 0 67 67" version="1.1" xmlns="http://www.w3.org/2000/svg" xmlns:xlink="http://www.w3.org/1999/xlink">
    <!-- Generator: Sketch 51.1 (57501) - http://www.bohemiancoding.com/sketch -->
    <title>Group</title>
    <desc>Created with Sketch.</desc>
    <defs>
        <linearGradient x1="14.6450817%" y1="85.3549183%" x2="85.3564228%" y2="14.6435772%" id="linearGradient-1">
            <stop stop-color="#848484" offset="0%"></stop>
            <stop stop-color="#989898" offset="50.1961%"></stop>
            <stop stop-color="#848484" offset="100%"></stop>
        </linearGradient>
        <linearGradient x1="14.64431%" y1="14.64431%" x2="85.3540364%" y2="85.35569%" id="linearGradient-2">
            <stop stop-color="#ADADAD" offset="0%"></stop>
            <stop stop-color="#D1D1D1" offset="50.1961%"></stop>
            <stop stop-color="#ADADAD" offset="100%"></stop>
        </linearGradient>
        <linearGradient x1="18.3846161%" y1="89.0950494%" x2="81.6165132%" y2="10.9053722%" id="linearGradient-3">
            <stop stop-color="#848484" offset="0%"></stop>
            <stop stop-color="#989898" offset="50.1961%"></stop>
            <stop stop-color="#848484" offset="100%"></stop>
        </linearGradient>
    </defs>
    <g id="Page-1" stroke="none" stroke-width="1" fill="none" fill-rule="evenodd">
        <g id="Garmentoria-LOGO_mar18" transform="translate(-456.000000, -250.000000)">
            <g id="Group" transform="translate(451.000000, 247.000000)">
                <rect id="Rectangle-path" x="0.693" y="0.699" width="75.837" height="71.479"></rect>
                <circle id="Oval" fill="url(#linearGradient-1)" cx="38.611" cy="36.439" r="33.233"></circle>
                <circle id="Oval" fill="url(#linearGradient-2)" cx="38.612" cy="36.439" r="30.237"></circle>
                <path d="M43.505,51.317 C46.046,51.379 54.615,54.842 58.821,52.577 C59.98,51.953 61.113,50.213 60.663,48.506 C60.001,45.989 56.206,45.401 53.392,44.822 C50.275,44.18 47.128,43.742 44.086,43.271 C47.364,43.129 51.171,43.183 55.041,42.98 C58.421,42.803 62.608,42.666 63.862,40.556 C64.351,39.736 64.39,38.571 64.056,37.745 C63.079,35.326 58.699,35.059 55.331,34.837 C51.485,34.583 47.707,34.668 43.892,34.643 C47.284,34.225 50.855,34.039 54.556,33.674 C58.345,33.299 64.996,32.875 63.184,27.857 C61.852,24.17 54.449,24.821 49.321,25.24 C44.657,25.621 40.549,26.136 36.719,26.306 C38.454,24.387 41.845,21.695 40.887,17.581 C40.533,16.063 39.231,13.767 37.3,13.606 C35.332,13.442 33.262,15.935 32.259,16.806 C29.257,19.41 25.973,21.205 21.692,22.622 C19.755,23.263 17.7,24.136 16.361,25.434 C13.1,28.591 11.915,34.973 12.289,40.556 C12.949,50.393 21.59,53.941 30.708,55.679 C33.737,56.257 36.516,57.34 39.142,58.2 C41.985,59.131 45.847,60.777 49.806,60.333 C51.357,60.159 53.127,59.113 53.102,57.424 C53.075,55.619 50.747,54.385 49.224,53.643 C48.657,53.367 43.687,51.317 43.505,51.317 Z" id="Shape" fill="url(#linearGradient-3)"></path>
                <path d="M49.418,54.807 C50.507,55.393 52.26,56.173 52.229,57.521 C52.189,59.303 49.982,59.653 47.479,59.46 C44.825,59.256 42.358,58.357 40.015,57.618 C37.655,56.874 35.496,56.053 32.938,55.389 C30.437,54.739 27.804,54.316 25.473,53.547 C22.965,52.719 20.602,51.541 18.978,50.445 C15.575,48.146 13.065,44.487 13.065,39.005 C13.065,33.863 14.212,28.289 17.427,25.627 C18.866,24.436 20.86,23.814 22.759,23.204 C27.835,21.571 31.222,18.903 34.78,15.836 C35.494,15.221 36.031,14.338 37.3,14.479 C38.228,14.582 39.251,15.753 39.724,16.709 C41.916,21.147 37.059,24.6 34.78,26.694 C34.771,26.84 34.761,26.984 34.751,27.127 C34.92,27.163 35.204,27.182 35.652,27.179 C39.541,27.054 43.672,26.583 48.255,26.209 C51.909,25.911 57.778,25.091 60.76,26.5 C61.845,27.012 63.004,28.595 62.408,30.281 C61.874,31.794 59.166,32.15 57.464,32.413 C52.081,33.246 46.557,33.44 41.178,33.964 C40.447,34.036 39.677,34.052 38.984,34.229 C38.482,34.389 38.706,35.193 39.142,35.225 C43.117,35.669 47.951,35.312 52.423,35.515 C56.737,35.711 61.292,35.538 63.281,38.23 C63.726,39.687 62.902,40.575 62.02,41.041 C59.757,42.238 55.526,42.258 51.357,42.301 C47.012,42.347 42.535,42.379 39.53,42.495 C38.731,42.523 38.98,43.391 39.336,43.465 C44.384,44.439 50.51,44.638 55.622,46.082 C57.063,46.489 59.202,47.267 59.694,48.312 C60.169,49.32 59.616,50.794 59.112,51.317 C58.33,52.128 56.625,52.386 55.331,52.383 C49.127,52.368 43.719,49.942 38.173,49.184 C37.502,49.085 37.406,49.745 37.979,49.96 C41.65,51.665 45.821,52.87 49.418,54.807 Z" id="Shape" fill="#FEFEFE"></path>
            </g>
        </g>
    </g>
</svg>