<?xml version="1.0" encoding="UTF-8"?>
<svg width="67px" height="68px" viewBox="0 0 67 68" version="1.1" xmlns="http://www.w3.org/2000/svg" xmlns:xlink="http://www.w3.org/1999/xlink">
    <!-- Generator: Sketch 51.1 (57501) - http://www.bohemiancoding.com/sketch -->
    <title>Group</title>
    <desc>Created with Sketch.</desc>
    <defs>
        <linearGradient x1="14.6450817%" y1="85.3564228%" x2="85.3564228%" y2="14.6435772%" id="linearGradient-1">
            <stop stop-color="#922F2F" offset="0%"></stop>
            <stop stop-color="#D02424" offset="50.1961%"></stop>
            <stop stop-color="#922F2F" offset="100%"></stop>
        </linearGradient>
        <linearGradient x1="14.64431%" y1="14.64431%" x2="85.3540364%" y2="85.35569%" id="linearGradient-2">
            <stop stop-color="#E24A4A" offset="0%"></stop>
            <stop stop-color="#F79191" offset="50.1961%"></stop>
            <stop stop-color="#E24A4A" offset="100%"></stop>
        </linearGradient>
        <linearGradient x1="81.6165132%" y1="89.094838%" x2="18.3846161%" y2="10.9057809%" id="linearGradient-3">
            <stop stop-color="#922F2F" offset="0%"></stop>
            <stop stop-color="#D02424" offset="50.1961%"></stop>
            <stop stop-color="#922F2F" offset="100%"></stop>
        </linearGradient>
    </defs>
    <g id="Page-1" stroke="none" stroke-width="1" fill="none" fill-rule="evenodd">
        <g id="Garmentoria-LOGO_mar18" transform="translate(-456.000000, -178.000000)">
            <g id="Group" transform="translate(451.000000, 176.000000)">
                <rect id="Rectangle-path" x="0.693" y="0.22" width="75.837" height="71.479"></rect>
                <circle id="Oval" fill="url(#linearGradient-1)" cx="38.611" cy="35.96" r="33.233"></circle>
                <circle id="Oval" fill="url(#linearGradient-2)" cx="38.612" cy="35.96" r="30.237"></circle>
                <path d="M43.505,50.838 C46.046,50.9 54.615,54.363 58.821,52.098 C59.98,51.475 61.113,49.734 60.663,48.027 C60.001,45.511 56.206,44.923 53.392,44.343 C50.275,43.701 47.128,43.264 44.086,42.792 C47.364,42.65 51.171,42.704 55.041,42.501 C58.421,42.324 62.608,42.187 63.862,40.077 C64.351,39.257 64.39,38.093 64.056,37.266 C63.079,34.847 58.699,34.58 55.331,34.358 C51.485,34.105 47.707,34.189 43.892,34.164 C47.284,33.746 50.855,33.56 54.556,33.195 C58.345,32.82 64.996,32.397 63.184,27.378 C61.852,23.691 54.449,24.342 49.321,24.761 C44.657,25.142 40.549,25.657 36.719,25.827 C38.454,23.909 41.845,21.216 40.887,17.102 C40.533,15.584 39.231,13.289 37.3,13.128 C35.332,12.963 33.262,15.456 32.259,16.327 C29.257,18.931 25.973,20.727 21.692,22.143 C19.755,22.785 17.7,23.657 16.361,24.955 C13.1,28.113 11.915,34.494 12.289,40.077 C12.949,49.914 21.59,53.462 30.708,55.2 C33.737,55.778 36.516,56.861 39.142,57.721 C41.985,58.652 45.847,60.298 49.806,59.854 C51.357,59.68 53.127,58.634 53.102,56.946 C53.075,55.14 50.747,53.906 49.224,53.165 C48.657,52.889 43.687,50.838 43.505,50.838 Z" id="Shape" fill="url(#linearGradient-3)"></path>
                <path d="M49.418,54.328 C50.507,54.914 52.26,55.694 52.229,57.042 C52.189,58.824 49.982,59.174 47.479,58.981 C44.825,58.777 42.358,57.878 40.015,57.139 C37.655,56.396 35.496,55.574 32.938,54.91 C30.437,54.26 27.804,53.837 25.473,53.068 C22.965,52.241 20.602,51.062 18.978,49.966 C15.575,47.667 13.065,44.008 13.065,38.527 C13.065,33.384 14.212,27.81 17.427,25.149 C18.866,23.957 20.86,23.336 22.759,22.725 C27.835,21.092 31.222,18.424 34.78,15.357 C35.494,14.742 36.031,13.859 37.3,14 C38.228,14.104 39.251,15.274 39.724,16.23 C41.916,20.668 37.059,24.121 34.78,26.215 C34.771,26.361 34.761,26.505 34.751,26.648 C34.92,26.684 35.204,26.703 35.652,26.7 C39.541,26.575 43.672,26.105 48.255,25.73 C51.909,25.432 57.778,24.612 60.76,26.021 C61.845,26.533 63.004,28.116 62.408,29.802 C61.874,31.315 59.166,31.671 57.464,31.935 C52.081,32.768 46.557,32.961 41.178,33.485 C40.447,33.557 39.677,33.574 38.984,33.75 C38.482,33.91 38.706,34.714 39.142,34.746 C43.117,35.19 47.951,34.833 52.423,35.037 C56.737,35.233 61.292,35.06 63.281,37.751 C63.726,39.208 62.902,40.096 62.02,40.562 C59.757,41.759 55.526,41.779 51.357,41.822 C47.012,41.868 42.535,41.9 39.53,42.016 C38.731,42.045 38.98,42.912 39.336,42.986 C44.384,43.96 50.51,44.159 55.622,45.603 C57.063,46.01 59.202,46.788 59.694,47.833 C60.169,48.841 59.616,50.315 59.112,50.838 C58.33,51.65 56.625,51.908 55.331,51.905 C49.127,51.889 43.719,49.463 38.173,48.705 C37.502,48.606 37.406,49.266 37.979,49.481 C41.65,51.187 45.821,52.392 49.418,54.328 Z" id="Shape" fill="#FEFEFE"></path>
            </g>
        </g>
    </g>
</svg>