<?xml version="1.0" encoding="UTF-8"?>
<svg width="67px" height="67px" viewBox="0 0 67 67" version="1.1" xmlns="http://www.w3.org/2000/svg" xmlns:xlink="http://www.w3.org/1999/xlink">
    <!-- Generator: Sketch 51.1 (57501) - http://www.bohemiancoding.com/sketch -->
    <title>Group</title>
    <desc>Created with Sketch.</desc>
    <defs>
        <linearGradient x1="14.6450817%" y1="85.3549183%" x2="85.3564228%" y2="14.6435772%" id="linearGradient-1">
            <stop stop-color="#848484" offset="0%"></stop>
            <stop stop-color="#989898" offset="50.1961%"></stop>
            <stop stop-color="#848484" offset="100%"></stop>
        </linearGradient>
        <linearGradient x1="14.64431%" y1="14.64431%" x2="85.35569%" y2="85.35569%" id="linearGradient-2">
            <stop stop-color="#ADADAD" offset="0%"></stop>
            <stop stop-color="#D1D1D1" offset="50.1961%"></stop>
            <stop stop-color="#ADADAD" offset="100%"></stop>
        </linearGradient>
        <linearGradient x1="16.2117229%" y1="86.9219694%" x2="83.7869863%" y2="13.0766774%" id="linearGradient-3">
            <stop stop-color="#848484" offset="0%"></stop>
            <stop stop-color="#989898" offset="50.1961%"></stop>
            <stop stop-color="#848484" offset="100%"></stop>
        </linearGradient>
    </defs>
    <g id="Page-1" stroke="none" stroke-width="1" fill="none" fill-rule="evenodd">
        <g id="Garmentoria-LOGO_mar18" transform="translate(-297.000000, -250.000000)">
            <g id="Group" transform="translate(292.000000, 247.000000)">
                <rect id="Rectangle-path" x="0.699" y="0.699" width="75.837" height="71.479"></rect>
                <circle id="Oval" fill="url(#linearGradient-1)" cx="38.617" cy="36.439" r="33.233"></circle>
                <circle id="Oval" fill="url(#linearGradient-2)" cx="38.618" cy="36.439" r="30.237"></circle>
                <path d="M50.165,27.847 C51.166,21.114 48.027,17.698 41.246,18.153 C38.474,18.338 35.721,19.308 32.909,20.382 C30.093,21.458 27.777,22.035 25.541,23.484 C21.351,26.202 18.347,30.952 17.98,36.862 C17.18,49.739 26.329,53.898 36.496,56.348 C41.139,57.467 47.896,58.897 47.741,52.179 C50.223,51.486 52.512,49.296 51.425,45.975 C54.883,45.6 57.046,41.366 54.624,38.026 C56.989,37.644 58.797,36.294 58.89,34.051 C59.063,29.817 54.066,28.181 50.165,27.847 Z" id="Shape" fill="url(#linearGradient-3)"></path>
                <path d="M57.92,32.888 C58.468,34.836 57.029,36.876 55.158,37.17 C55.109,37.184 55.055,37.191 54.995,37.192 C54.877,37.203 54.757,37.208 54.636,37.205 C54.003,37.252 53.136,37.442 53.642,38.114 L53.708,38.195 L53.715,38.204 C53.772,38.269 53.824,38.339 53.872,38.413 C54.401,39.149 54.741,40.001 54.818,40.934 C55.022,43.401 53.248,44.654 51.219,45.085 C51.188,45.097 51.16,45.103 51.134,45.102 C50.525,45.094 50.347,45.276 50.488,45.775 L50.488,45.777 C51.264,48.116 50.455,50.733 47.547,51.307 C47.088,51.398 46.831,51.479 46.851,51.992 C46.858,52.054 46.864,52.117 46.869,52.179 C46.871,52.194 46.871,52.208 46.871,52.223 C47.102,55.547 44.817,56.779 41.731,56.542 C38.298,56.277 35.136,55.251 31.843,54.118 C24.517,51.597 18.728,47.979 18.756,38.316 C18.774,31.878 21.98,26.753 26.123,24.066 C27.684,23.054 29.445,22.573 31.358,21.837 C34.588,20.593 38.701,18.644 43.282,18.928 C48.551,19.256 49.963,23.24 49.294,27.764 C45.125,27.325 41.768,27.14 41.101,27.114 C40.42,27.087 40.379,27.812 41.006,27.853 C41.587,27.891 47.142,28.354 49.162,28.532 C49.817,28.589 49.858,28.594 50.165,28.622 C52.98,28.897 57.14,30.117 57.92,32.888 Z" id="Shape" fill="#FEFEFE"></path>
            </g>
        </g>
    </g>
</svg>