<?xml version="1.0" encoding="UTF-8"?>
<svg width="68px" height="67px" viewBox="0 0 68 67" version="1.1" xmlns="http://www.w3.org/2000/svg" xmlns:xlink="http://www.w3.org/1999/xlink">
    <!-- Generator: Sketch 51.1 (57501) - http://www.bohemiancoding.com/sketch -->
    <title>Group</title>
    <desc>Created with Sketch.</desc>
    <defs>
        <linearGradient x1="14.6450817%" y1="14.6435772%" x2="85.3564228%" y2="85.3549183%" id="linearGradient-1">
            <stop stop-color="#922F2F" offset="0%"></stop>
            <stop stop-color="#D02424" offset="50.1961%"></stop>
            <stop stop-color="#922F2F" offset="100%"></stop>
        </linearGradient>
        <linearGradient x1="14.64431%" y1="14.64431%" x2="85.35569%" y2="85.35569%" id="linearGradient-2">
            <stop stop-color="#E24A4A" offset="0%"></stop>
            <stop stop-color="#F79191" offset="50.1961%"></stop>
            <stop stop-color="#E24A4A" offset="100%"></stop>
        </linearGradient>
        <linearGradient x1="81.6165542%" y1="89.0948373%" x2="18.3841453%" y2="10.9036389%" id="linearGradient-3">
            <stop stop-color="#922F2F" offset="0%"></stop>
            <stop stop-color="#D02424" offset="50.1961%"></stop>
            <stop stop-color="#922F2F" offset="100%"></stop>
        </linearGradient>
    </defs>
    <g id="Page-1" stroke="none" stroke-width="1" fill="none" fill-rule="evenodd">
        <g id="Garmentoria-LOGO_mar18" transform="translate(-62.000000, -250.000000)">
            <g id="Group" transform="translate(57.000000, 247.000000)">
                <rect id="Rectangle-path" x="0.868" y="0.699" width="75.837" height="71.479"></rect>
                <circle id="Oval" fill="url(#linearGradient-1)" cx="38.786" cy="36.439" r="33.233"></circle>
                <circle id="Oval" fill="url(#linearGradient-2)" cx="38.786" cy="36.439" r="30.237"></circle>
                <path d="M33.893,51.317 C31.352,51.379 22.783,54.842 18.576,52.577 C17.418,51.953 16.285,50.213 16.734,48.506 C17.396,45.989 21.192,45.401 24.005,44.822 C27.123,44.18 30.27,43.742 33.311,43.271 C30.034,43.129 26.227,43.183 22.357,42.98 C18.977,42.803 14.79,42.666 13.535,40.556 C13.047,39.736 13.008,38.571 13.341,37.745 C14.319,35.326 18.699,35.059 22.066,34.837 C25.913,34.583 29.69,34.668 33.505,34.643 C30.114,34.225 26.542,34.039 22.842,33.674 C19.052,33.299 12.401,32.875 14.214,27.857 C15.546,24.17 22.948,24.821 28.076,25.24 C32.741,25.621 36.848,26.136 40.679,26.306 C38.944,24.387 35.553,21.695 36.51,17.581 C36.864,16.063 38.167,13.767 40.097,13.607 C42.065,13.442 44.135,15.936 45.138,16.806 C48.14,19.41 51.425,21.205 55.705,22.622 C57.643,23.263 59.697,24.136 61.037,25.434 C64.298,28.591 65.483,34.973 65.108,40.556 C64.448,50.393 55.808,53.941 46.689,55.679 C43.66,56.257 40.881,57.34 38.255,58.2 C35.413,59.131 31.551,60.777 27.592,60.333 C26.041,60.159 24.27,59.113 24.296,57.424 C24.323,55.619 26.651,54.385 28.173,53.643 C28.74,53.367 33.71,51.317 33.893,51.317 Z" id="Shape" fill="url(#linearGradient-3)"></path>
                <path d="M27.979,54.807 C26.891,55.393 25.137,56.173 25.168,57.521 C25.209,59.303 27.416,59.653 29.918,59.46 C32.573,59.255 35.039,58.357 37.383,57.618 C39.743,56.874 41.901,56.053 44.46,55.389 C46.961,54.739 49.593,54.315 51.924,53.547 C54.432,52.719 56.796,51.541 58.419,50.445 C61.822,48.146 64.333,44.487 64.333,39.005 C64.333,33.863 63.185,28.289 59.97,25.627 C58.531,24.436 56.537,23.814 54.639,23.204 C49.562,21.572 46.176,18.903 42.618,15.836 C41.904,15.221 41.367,14.338 40.097,14.479 C39.17,14.582 38.146,15.753 37.674,16.709 C35.482,21.147 40.339,24.6 42.618,26.694 C43.02,33.473 45.42,38.101 51.827,39.005 C52.08,39.041 54.717,38.844 54.639,39.587 C54.577,40.172 53.061,39.969 52.215,39.878 C44.982,39.096 42.319,34.254 41.745,27.179 C37.856,27.054 33.725,26.583 29.143,26.209 C25.489,25.911 19.619,25.091 16.637,26.5 C15.553,27.012 14.394,28.595 14.989,30.281 C15.524,31.794 18.232,32.15 19.933,32.413 C25.316,33.246 30.84,33.44 36.22,33.965 C37.253,34.065 38.363,34.057 39.225,34.546 C37.882,40.809 39.335,48.156 41.551,52.383 C41.824,52.904 42.697,53.68 42.133,54.322 C41.238,54.126 40.943,53.096 40.582,52.383 C40.169,51.568 39.85,50.687 39.419,49.96 C35.747,51.665 31.577,52.87 27.979,54.807 Z M24.974,35.515 C20.661,35.711 16.105,35.538 14.117,38.23 C13.672,39.687 14.496,40.575 15.377,41.041 C17.64,42.238 21.871,42.258 26.041,42.301 C30.386,42.347 34.863,42.379 37.868,42.495 C37.864,40.257 37.822,37.329 38.255,35.225 C34.28,35.669 29.447,35.312 24.974,35.515 Z M21.775,46.082 C20.334,46.489 18.196,47.267 17.704,48.312 C17.229,49.32 17.781,50.794 18.285,51.317 C19.068,52.128 20.773,52.386 22.066,52.383 C28.271,52.368 33.678,49.942 39.225,49.184 C38.726,47.389 38.233,45.587 38.062,43.465 C33.014,44.438 26.887,44.638 21.775,46.082 Z" id="Shape" fill="#FEFEFE"></path>
            </g>
        </g>
    </g>
</svg>