<?xml version="1.0" encoding="UTF-8"?>
<svg width="67px" height="68px" viewBox="0 0 67 68" version="1.1" xmlns="http://www.w3.org/2000/svg" xmlns:xlink="http://www.w3.org/1999/xlink">
    <!-- Generator: Sketch 51.1 (57501) - http://www.bohemiancoding.com/sketch -->
    <title>Group</title>
    <desc>Created with Sketch.</desc>
    <defs>
        <linearGradient x1="14.6450817%" y1="85.3564228%" x2="85.3564228%" y2="14.6435772%" id="linearGradient-1">
            <stop stop-color="#922F2F" offset="0%"></stop>
            <stop stop-color="#D02424" offset="50.1961%"></stop>
            <stop stop-color="#922F2F" offset="100%"></stop>
        </linearGradient>
        <linearGradient x1="14.64431%" y1="14.64431%" x2="85.35569%" y2="85.35569%" id="linearGradient-2">
            <stop stop-color="#E24A4A" offset="0%"></stop>
            <stop stop-color="#F79191" offset="50.1961%"></stop>
            <stop stop-color="#E24A4A" offset="100%"></stop>
        </linearGradient>
        <linearGradient x1="83.7869863%" y1="86.92127%" x2="16.2117229%" y2="13.0787632%" id="linearGradient-3">
            <stop stop-color="#922F2F" offset="0%"></stop>
            <stop stop-color="#D02424" offset="50.1961%"></stop>
            <stop stop-color="#922F2F" offset="100%"></stop>
        </linearGradient>
    </defs>
    <g id="Page-1" stroke="none" stroke-width="1" fill="none" fill-rule="evenodd">
        <g id="Garmentoria-LOGO_mar18" transform="translate(-297.000000, -178.000000)">
            <g id="Group" transform="translate(292.000000, 176.000000)">
                <rect id="Rectangle-path" x="0.699" y="0.22" width="75.837" height="71.479"></rect>
                <circle id="Oval" fill="url(#linearGradient-1)" cx="38.617" cy="35.96" r="33.233"></circle>
                <circle id="Oval" fill="url(#linearGradient-2)" cx="38.618" cy="35.96" r="30.237"></circle>
                <path d="M50.165,27.368 C51.166,20.636 48.027,17.22 41.246,17.674 C38.474,17.86 35.721,18.83 32.909,19.904 C30.093,20.979 27.777,21.556 25.541,23.006 C21.351,25.723 18.347,30.473 17.98,36.384 C17.18,49.26 26.329,53.419 36.496,55.869 C41.139,56.988 47.896,58.419 47.741,51.7 C50.223,51.007 52.512,48.817 51.425,45.496 C54.883,45.121 57.046,40.887 54.624,37.547 C56.989,37.165 58.797,35.815 58.89,33.572 C59.063,29.338 54.066,27.702 50.165,27.368 Z" id="Shape" fill="url(#linearGradient-3)"></path>
                <path d="M57.92,32.409 C58.468,34.357 57.029,36.397 55.158,36.691 C55.109,36.705 55.055,36.713 54.995,36.713 C54.877,36.725 54.757,36.729 54.636,36.726 C54.003,36.773 53.136,36.963 53.642,37.635 L53.708,37.716 L53.715,37.725 C53.772,37.79 53.824,37.86 53.872,37.934 C54.401,38.67 54.741,39.522 54.818,40.455 C55.022,42.922 53.248,44.175 51.219,44.606 C51.188,44.618 51.16,44.624 51.134,44.623 C50.525,44.616 50.347,44.797 50.488,45.296 L50.488,45.298 C51.264,47.638 50.455,50.254 47.547,50.828 C47.088,50.92 46.831,51.001 46.851,51.513 C46.858,51.575 46.864,51.638 46.869,51.701 C46.871,51.715 46.871,51.729 46.871,51.744 C47.102,55.068 44.817,56.301 41.731,56.063 C38.298,55.798 35.136,54.772 31.843,53.639 C24.517,51.119 18.728,47.5 18.756,37.838 C18.774,31.399 21.98,26.274 26.123,23.587 C27.684,22.575 29.445,22.094 31.358,21.358 C34.588,20.114 38.701,18.165 43.282,18.449 C48.551,18.777 49.963,22.761 49.294,27.285 C45.125,26.846 41.768,26.662 41.101,26.635 C40.42,26.608 40.379,27.333 41.006,27.374 C41.587,27.412 47.142,27.875 49.162,28.053 C49.817,28.11 49.858,28.116 50.165,28.143 C52.98,28.418 57.14,29.638 57.92,32.409 Z" id="Shape" fill="#FEFEFE"></path>
            </g>
        </g>
    </g>
</svg>