<?xml version="1.0" encoding="UTF-8"?>
<svg width="68px" height="67px" viewBox="0 0 68 67" version="1.1" xmlns="http://www.w3.org/2000/svg" xmlns:xlink="http://www.w3.org/1999/xlink">
    <!-- Generator: Sketch 51.1 (57501) - http://www.bohemiancoding.com/sketch -->
    <title>Group</title>
    <desc>Created with Sketch.</desc>
    <defs>
        <linearGradient x1="14.6450817%" y1="14.6450817%" x2="85.3564228%" y2="85.3549183%" id="linearGradient-1">
            <stop stop-color="#848484" offset="0%"></stop>
            <stop stop-color="#989898" offset="50.1961%"></stop>
            <stop stop-color="#848484" offset="100%"></stop>
        </linearGradient>
        <linearGradient x1="14.64431%" y1="14.64431%" x2="85.35569%" y2="85.35569%" id="linearGradient-2">
            <stop stop-color="#ADADAD" offset="0%"></stop>
            <stop stop-color="#D1D1D1" offset="50.1961%"></stop>
            <stop stop-color="#ADADAD" offset="100%"></stop>
        </linearGradient>
        <linearGradient x1="28.1597187%" y1="98.8713089%" x2="71.8401766%" y2="1.12923093%" id="linearGradient-3">
            <stop stop-color="#848484" offset="0%"></stop>
            <stop stop-color="#989898" offset="50.1961%"></stop>
            <stop stop-color="#848484" offset="100%"></stop>
        </linearGradient>
    </defs>
    <g id="Page-1" stroke="none" stroke-width="1" fill="none" fill-rule="evenodd">
        <g id="Garmentoria-LOGO_mar18" transform="translate(-376.000000, -250.000000)">
            <g id="Group" transform="translate(372.000000, 247.000000)">
                <rect id="Rectangle-path" x="0.196" y="0.699" width="75.837" height="71.479"></rect>
                <circle id="Oval" fill="url(#linearGradient-1)" cx="38.114" cy="36.439" r="33.233"></circle>
                <circle id="Oval" fill="url(#linearGradient-2)" cx="38.115" cy="36.439" r="30.237"></circle>
                <path d="M42.19,34.995 C45.749,34.175 49.598,33.553 53.532,32.863 C56.782,32.292 62.757,31.644 63.227,28.597 C63.693,25.572 61.259,24.046 58.67,23.847 C53.358,23.438 45.836,25.657 41.608,26.173 C41.336,22.275 39.284,20.132 35.404,19.873 C31.826,19.633 27.969,21.153 25.031,22.296 C21.779,23.561 19.13,24.467 16.985,26.949 C12.835,31.752 11.754,40.847 15.628,46.144 C18.448,49.998 24.005,52.03 29.394,53.317 C33.315,54.254 39.796,55.284 39.185,49.634 C41.247,48.917 42.951,47.842 42.675,44.787 C47.43,44.883 55.001,46.762 60.512,46.144 C62.757,45.892 65.11,44.238 64.196,41.49 C63.061,38.081 58.449,37.688 54.502,36.934 C50.518,36.173 46.084,35.585 42.19,34.995 Z" id="Shape" fill="url(#linearGradient-3)"></path>
                <path d="M39.088,48.761 C37.095,49.182 35.68,48.604 34.325,48.1 C34.222,48.406 34.115,48.714 34.003,49.019 C35.541,49.572 37.039,49.918 38.354,49.854 C38.404,49.97 38.424,50.12 38.409,50.312 C38.236,52.551 36.473,53.527 33.756,53.317 C30.777,53.088 27.252,51.97 24.546,50.991 C19.045,49 14.543,45.927 14.077,38.97 C13.717,33.592 15.588,29.546 18.246,26.852 C20.048,25.025 22.612,24.071 25.225,23.071 C27.874,22.058 30.759,20.959 33.756,20.745 C38.342,20.416 40.602,22.48 40.686,26.332 C38.414,26.721 33.003,27.741 31.956,28.074 C30.757,28.456 30.921,29.327 31.955,28.975 C32.686,28.726 37.085,27.88 39.599,27.407 L39.616,27.404 L39.629,27.401 L39.658,27.395 L39.686,27.39 L39.716,27.385 L39.744,27.38 L39.751,27.378 L39.772,27.374 L39.8,27.369 L39.828,27.364 L39.855,27.358 L39.882,27.354 L39.883,27.353 L39.91,27.348 L39.938,27.343 L39.992,27.333 L40.009,27.33 L40.018,27.328 L40.046,27.323 L40.233,27.288 L40.249,27.285 L40.259,27.283 C40.616,27.216 40.986,27.146 41.511,27.046 C45.97,26.522 52.043,24.598 57.313,24.623 C58.289,24.627 59.543,24.684 60.415,25.01 C61.561,25.438 62.847,27.071 62.257,28.791 C61.794,30.142 59.181,30.817 57.507,31.215 C51.573,32.623 44.91,33.254 39.379,34.704 C39.208,34.728 39.158,34.872 39.185,35.092 C39.515,35.482 40.178,35.497 40.639,35.577 C46.893,36.661 53.345,37.071 58.961,38.873 C60.598,39.398 63.32,40.247 63.42,42.266 C63.526,44.386 61.475,45.237 59.64,45.368 C54.006,45.772 47.555,44.05 42.384,43.914 C40.493,43.864 38.317,43.441 36.128,43.388 C36.071,43.623 36.008,43.885 35.938,44.169 C38.245,44.212 40.274,44.644 41.747,44.753 C42.382,44.8 42.069,48.346 39.088,48.761 Z" id="Shape" fill="#FEFEFE"></path>
            </g>
        </g>
    </g>
</svg>