<?xml version="1.0" encoding="UTF-8"?>
<svg width="68px" height="68px" viewBox="0 0 68 68" version="1.1" xmlns="http://www.w3.org/2000/svg" xmlns:xlink="http://www.w3.org/1999/xlink">
    <!-- Generator: Sketch 51.1 (57501) - http://www.bohemiancoding.com/sketch -->
    <title>Group</title>
    <desc>Created with Sketch.</desc>
    <defs>
        <linearGradient x1="14.6450817%" y1="85.3549183%" x2="85.3564228%" y2="14.6450817%" id="linearGradient-1">
            <stop stop-color="#922F2F" offset="0%"></stop>
            <stop stop-color="#D02424" offset="50.1961%"></stop>
            <stop stop-color="#922F2F" offset="100%"></stop>
        </linearGradient>
        <linearGradient x1="14.64431%" y1="14.64431%" x2="85.35569%" y2="85.35569%" id="linearGradient-2">
            <stop stop-color="#E24A4A" offset="0%"></stop>
            <stop stop-color="#F79191" offset="50.1961%"></stop>
            <stop stop-color="#E24A4A" offset="100%"></stop>
        </linearGradient>
        <linearGradient x1="71.8401766%" y1="98.8713089%" x2="28.1597187%" y2="1.12923093%" id="linearGradient-3">
            <stop stop-color="#922F2F" offset="0%"></stop>
            <stop stop-color="#D02424" offset="50.1961%"></stop>
            <stop stop-color="#922F2F" offset="100%"></stop>
        </linearGradient>
    </defs>
    <g id="Page-1" stroke="none" stroke-width="1" fill="none" fill-rule="evenodd">
        <g id="Garmentoria-LOGO_mar18" transform="translate(-376.000000, -178.000000)">
            <g id="Group" transform="translate(372.000000, 176.000000)">
                <rect id="Rectangle-path" x="0.196" y="0.22" width="75.837" height="71.479"></rect>
                <circle id="Oval" fill="url(#linearGradient-1)" cx="38.114" cy="35.96" r="33.233"></circle>
                <circle id="Oval" fill="url(#linearGradient-2)" cx="38.115" cy="35.96" r="30.237"></circle>
                <path d="M42.19,34.516 C45.749,33.697 49.598,33.075 53.532,32.384 C56.782,31.813 62.757,31.165 63.227,28.118 C63.693,25.094 61.259,23.568 58.67,23.368 C53.358,22.959 45.836,25.178 41.608,25.695 C41.336,21.796 39.284,19.654 35.404,19.394 C31.826,19.154 27.969,20.674 25.031,21.817 C21.779,23.082 19.13,23.988 16.985,26.47 C12.835,31.273 11.754,40.368 15.628,45.665 C18.448,49.519 24.005,51.551 29.394,52.838 C33.315,53.775 39.796,54.805 39.185,49.155 C41.247,48.439 42.951,47.363 42.675,44.308 C47.43,44.404 55.001,46.284 60.512,45.665 C62.757,45.413 65.11,43.759 64.196,41.012 C63.061,37.602 58.449,37.21 54.502,36.455 C50.518,35.694 46.084,35.107 42.19,34.516 Z" id="Shape" fill="url(#linearGradient-3)"></path>
                <path d="M39.088,48.282 C37.095,48.703 35.68,48.125 34.325,47.621 C34.222,47.928 34.115,48.235 34.003,48.54 C35.541,49.093 37.039,49.44 38.354,49.375 C38.404,49.491 38.424,49.641 38.409,49.833 C38.236,52.072 36.473,53.048 33.756,52.838 C30.777,52.609 27.252,51.491 24.546,50.512 C19.045,48.521 14.543,45.449 14.077,38.491 C13.717,33.113 15.588,29.067 18.246,26.373 C20.048,24.547 22.612,23.592 25.225,22.593 C27.874,21.579 30.759,20.481 33.756,20.266 C38.342,19.938 40.602,22.001 40.686,25.853 C38.414,26.242 33.003,27.262 31.956,27.595 C30.757,27.977 30.921,28.848 31.955,28.496 C32.686,28.247 37.085,27.401 39.599,26.928 L39.616,26.925 L39.629,26.922 L39.658,26.917 L39.686,26.911 L39.716,26.906 L39.744,26.901 L39.751,26.899 L39.772,26.895 L39.8,26.89 L39.828,26.885 L39.855,26.879 L39.882,26.875 L39.883,26.874 L39.91,26.869 L39.938,26.864 L39.992,26.854 L40.009,26.851 L40.018,26.849 L40.046,26.844 L40.233,26.809 L40.249,26.806 L40.259,26.804 C40.616,26.737 40.986,26.667 41.511,26.567 C45.97,26.043 52.043,24.119 57.313,24.144 C58.289,24.148 59.543,24.205 60.415,24.532 C61.561,24.96 62.847,26.592 62.257,28.312 C61.794,29.663 59.181,30.338 57.507,30.736 C51.573,32.144 44.91,32.775 39.379,34.226 C39.208,34.249 39.158,34.393 39.185,34.613 C39.515,35.003 40.178,35.018 40.639,35.098 C46.893,36.182 53.345,36.592 58.961,38.394 C60.598,38.92 63.32,39.768 63.42,41.787 C63.526,43.907 61.475,44.758 59.64,44.889 C54.006,45.293 47.555,43.571 42.384,43.435 C40.493,43.385 38.317,42.962 36.128,42.909 C36.071,43.144 36.008,43.406 35.938,43.69 C38.245,43.733 40.274,44.166 41.747,44.274 C42.382,44.321 42.069,47.867 39.088,48.282 Z" id="Shape" fill="#FEFEFE"></path>
            </g>
        </g>
    </g>
</svg>