<?xml version="1.0" encoding="UTF-8"?>
<svg width="67px" height="67px" viewBox="0 0 67 67" version="1.1" xmlns="http://www.w3.org/2000/svg" xmlns:xlink="http://www.w3.org/1999/xlink">
    <!-- Generator: Sketch 51.1 (57501) - http://www.bohemiancoding.com/sketch -->
    <title>Group</title>
    <desc>Created with Sketch.</desc>
    <defs>
        <linearGradient x1="14.6450817%" y1="14.6435772%" x2="85.3564228%" y2="85.3549183%" id="linearGradient-1">
            <stop stop-color="#922F2F" offset="0%"></stop>
            <stop stop-color="#D02424" offset="50.1961%"></stop>
            <stop stop-color="#922F2F" offset="100%"></stop>
        </linearGradient>
        <linearGradient x1="14.64431%" y1="14.64431%" x2="85.35569%" y2="85.35569%" id="linearGradient-2">
            <stop stop-color="#E24A4A" offset="0%"></stop>
            <stop stop-color="#F79191" offset="50.1961%"></stop>
            <stop stop-color="#E24A4A" offset="100%"></stop>
        </linearGradient>
        <linearGradient x1="71.8399456%" y1="98.8713089%" x2="28.1589667%" y2="1.12923093%" id="linearGradient-3">
            <stop stop-color="#922F2F" offset="0%"></stop>
            <stop stop-color="#D02424" offset="50.1961%"></stop>
            <stop stop-color="#922F2F" offset="100%"></stop>
        </linearGradient>
    </defs>
    <g id="Page-1" stroke="none" stroke-width="1" fill="none" fill-rule="evenodd">
        <g id="Garmentoria-LOGO_mar18" transform="translate(-142.000000, -250.000000)">
            <g id="Group" transform="translate(137.000000, 247.000000)">
                <rect id="Rectangle-path" x="0.365" y="0.699" width="75.837" height="71.479"></rect>
                <circle id="Oval" fill="url(#linearGradient-1)" cx="38.283" cy="36.439" r="33.233"></circle>
                <circle id="Oval" fill="url(#linearGradient-2)" cx="38.283" cy="36.439" r="30.237"></circle>
                <path d="M34.207,34.995 C30.648,34.175 26.799,33.553 22.865,32.863 C19.616,32.292 13.641,31.644 13.171,28.597 C12.704,25.573 15.138,24.046 17.727,23.847 C23.04,23.438 30.561,25.657 34.789,26.173 C35.061,22.275 37.114,20.132 40.993,19.873 C44.571,19.633 48.428,21.153 51.366,22.296 C54.619,23.561 57.267,24.467 59.412,26.949 C63.562,31.752 64.643,40.847 60.769,46.144 C57.95,49.998 52.392,52.03 47.004,53.317 C43.082,54.254 36.601,55.284 37.213,49.634 C35.15,48.917 33.446,47.842 33.723,44.787 C28.967,44.883 21.396,46.762 15.885,46.144 C13.64,45.892 11.287,44.238 12.202,41.49 C13.336,38.081 17.948,37.688 21.896,36.934 C25.879,36.173 30.313,35.585 34.207,34.995 Z" id="Shape" fill="url(#linearGradient-3)"></path>
                <path d="M37.213,35.092 C36.882,35.482 36.219,35.497 35.758,35.577 C29.505,36.661 23.052,37.07 17.436,38.873 C15.799,39.398 13.078,40.247 12.977,42.266 C12.871,44.386 14.922,45.237 16.758,45.368 C22.392,45.772 28.843,44.044 34.013,43.914 C35.089,41.241 37.098,39.502 39.539,38.194 C37.371,35.483 35.261,31.874 34.886,27.046 C30.427,26.522 24.355,24.598 19.084,24.623 C18.108,24.627 16.854,24.685 15.982,25.01 C14.837,25.438 13.551,27.071 14.141,28.791 C14.604,30.142 17.216,30.817 18.891,31.214 C24.824,32.623 31.487,33.254 37.019,34.704 C37.189,34.728 37.24,34.872 37.213,35.092 Z M37.31,48.761 C38.506,44.561 41.268,41.927 45.065,40.327 C45.023,39.723 44.863,39.236 44.58,38.873 C43.474,39.688 41.359,39.54 40.315,38.776 C36.734,39.818 31.344,46.907 37.31,48.761 Z M47.682,47.501 C48.297,46.643 48.915,45.316 49.039,44.205 C49.495,40.153 45.714,40.541 43.417,41.975 C41.287,43.305 37.721,46.87 37.988,50.312 C38.162,52.551 39.925,53.527 42.641,53.317 C45.62,53.088 49.145,51.97 51.851,50.991 C57.352,49 61.854,45.927 62.321,38.97 C62.681,33.592 60.81,29.546 58.152,26.852 C56.35,25.025 53.786,24.071 51.172,23.071 C48.523,22.058 45.639,20.959 42.641,20.745 C37.566,20.381 35.339,22.948 35.758,27.628 C36.117,31.623 38.54,36.641 41.09,38.098 C41.342,38.241 41.836,38.767 43.029,38.582 C45.876,38.14 46.006,33.428 44.968,31.118 C44.714,30.553 43.854,29.782 44.483,29.179 C45.24,29.403 45.907,30.694 46.228,31.796 C46.842,33.905 46.428,36.885 45.356,38.001 C46.767,38.64 48.674,39.416 50.688,39.552 C51.31,39.593 52.682,39.202 52.82,40.133 C51.748,40.76 50.16,40.362 48.943,40.133 C48.297,40.012 47.613,39.923 47.101,39.745 C46.545,39.553 46.142,39.105 45.743,39.261 C45.74,40.476 46.941,39.922 47.585,40.036 C50.913,40.625 49.958,45.499 48.652,47.598 C48.107,48.472 47.208,49.768 46.325,49.439 C46.301,48.554 47.219,48.147 47.682,47.501 Z" id="Shape" fill="#FEFEFE"></path>
            </g>
        </g>
    </g>
</svg>