<?xml version="1.0" encoding="UTF-8"?>
<svg width="67px" height="68px" viewBox="0 0 67 68" version="1.1" xmlns="http://www.w3.org/2000/svg" xmlns:xlink="http://www.w3.org/1999/xlink">
    <!-- Generator: Sketch 51.1 (57501) - http://www.bohemiancoding.com/sketch -->
    <title>Group</title>
    <desc>Created with Sketch.</desc>
    <defs>
        <linearGradient x1="14.6435772%" y1="14.6435772%" x2="85.3549183%" y2="85.3564228%" id="linearGradient-1">
            <stop stop-color="#848484" offset="0%"></stop>
            <stop stop-color="#989898" offset="50.1961%"></stop>
            <stop stop-color="#848484" offset="100%"></stop>
        </linearGradient>
        <linearGradient x1="14.64431%" y1="14.64431%" x2="85.35569%" y2="85.35569%" id="linearGradient-2">
            <stop stop-color="#ADADAD" offset="0%"></stop>
            <stop stop-color="#D1D1D1" offset="50.1961%"></stop>
            <stop stop-color="#ADADAD" offset="100%"></stop>
        </linearGradient>
        <linearGradient x1="83.7903423%" y1="86.92127%" x2="16.2110704%" y2="13.0787632%" id="linearGradient-3">
            <stop stop-color="#848484" offset="0%"></stop>
            <stop stop-color="#989898" offset="50.1961%"></stop>
            <stop stop-color="#848484" offset="100%"></stop>
        </linearGradient>
    </defs>
    <g id="Page-1-Copy-2" stroke="none" stroke-width="1" fill="none" fill-rule="evenodd">
        <g id="Garmentoria-LOGO_mar18" transform="translate(-221.000000, -178.000000)">
            <g id="Group" transform="translate(216.000000, 176.000000)">
                <rect id="Rectangle-path" x="0.862" y="0.22" width="75.837" height="71.479"></rect>
                <circle id="Oval" fill="url(#linearGradient-1)" cx="38.78" cy="35.96" r="33.233"></circle>
                <circle id="Oval" fill="url(#linearGradient-2)" cx="38.78" cy="35.96" r="30.237"></circle>
                <path d="M27.233,27.368 C26.231,20.636 29.37,17.22 36.151,17.674 C38.924,17.86 41.676,18.83 44.488,19.904 C47.304,20.979 49.62,21.556 51.856,23.006 C56.046,25.723 59.05,30.473 59.417,36.384 C60.217,49.26 51.068,53.419 40.902,55.869 C36.259,56.988 29.501,58.419 29.656,51.7 C27.174,51.007 24.886,48.817 25.972,45.496 C22.514,45.121 20.352,40.887 22.774,37.547 C20.408,37.165 18.6,35.815 18.508,33.572 C18.334,29.338 23.331,27.702 27.233,27.368 Z" id="Shape" fill="url(#linearGradient-3)"></path>
                <path d="M19.477,32.409 C18.832,34.7 20.937,37.119 23.258,36.674 C23.936,36.545 24.572,35.689 25.197,35.317 C26.409,34.595 27.528,34.243 29.462,34.251 C28.635,32.3 27.868,30.287 27.233,28.143 C24.417,28.418 20.257,29.638 19.477,32.409 Z M22.579,40.455 C22.372,42.956 24.199,44.21 26.263,44.623 C27.633,41.922 29.778,39.995 32.468,38.613 C31.823,37.673 30.583,36.492 30.044,35.123 C26.447,34.846 22.854,37.139 22.579,40.455 Z M27.136,44.72 C26.013,47.188 26.7,50.206 29.85,50.828 C31.218,45.992 34.315,42.884 38.769,41.134 C38.745,40.349 38.484,39.803 38.187,39.292 C37.515,39.614 36.412,40.127 35.182,39.97 C34.356,39.865 33.835,39.365 33.243,39.195 C31.034,40.377 28.268,42.232 27.136,44.72 Z M39.738,30.761 C40.764,33.534 40.17,37.208 38.865,38.516 C38.997,38.486 39.051,38.378 39.254,38.419 C40.748,39.418 43.216,40.116 45.554,40.261 C46.107,40.295 47.359,39.939 47.493,40.746 C47.13,41.39 46.021,41.182 45.361,41.134 C42.995,40.959 40.796,40.286 39.35,39.486 C39.384,39.968 39.617,40.253 39.544,40.843 C45.313,39.935 44.624,46.248 42.743,49.277 C42.025,50.435 41.077,51.942 40.126,51.409 C40.155,50.682 41.053,50.282 41.58,49.567 C42.375,48.491 43.185,46.764 43.325,45.399 C43.782,40.942 39.825,41.169 37.218,42.685 C34.276,44.395 30.808,48.003 30.529,51.7 C30.275,55.058 32.567,56.302 35.667,56.063 C39.099,55.798 42.262,54.772 45.554,53.639 C52.88,51.119 58.67,47.5 58.642,37.838 C58.623,31.399 55.418,26.274 51.274,23.587 C49.713,22.575 47.952,22.094 46.039,21.358 C42.81,20.114 38.696,18.165 34.116,18.449 C27.74,18.845 27.011,24.597 28.784,30.179 C29.13,31.27 29.593,32.338 30.044,33.281 C30.89,35.053 32.211,37.67 34.116,38.71 C36.012,39.746 38.081,38.469 38.769,37.159 C39.932,34.943 39.306,31.64 38.381,29.889 C38.149,29.449 37.409,28.819 37.993,28.338 C38.914,28.475 39.379,29.79 39.738,30.761 Z" id="Shape" fill="#FEFEFE"></path>
            </g>
        </g>
    </g>
</svg>