<?xml version="1.0" encoding="UTF-8"?>
<svg width="67px" height="68px" viewBox="0 0 67 68" version="1.1" xmlns="http://www.w3.org/2000/svg" xmlns:xlink="http://www.w3.org/1999/xlink">
    <!-- Generator: Sketch 51.1 (57501) - http://www.bohemiancoding.com/sketch -->
    <title>Group</title>
    <desc>Created with Sketch.</desc>
    <defs>
        <linearGradient x1="14.6450817%" y1="14.6435772%" x2="85.3564228%" y2="85.3564228%" id="linearGradient-1">
            <stop stop-color="#848484" offset="0%"></stop>
            <stop stop-color="#989898" offset="50.1961%"></stop>
            <stop stop-color="#848484" offset="100%"></stop>
        </linearGradient>
        <linearGradient x1="14.64431%" y1="14.64431%" x2="85.35569%" y2="85.35569%" id="linearGradient-2">
            <stop stop-color="#ADADAD" offset="0%"></stop>
            <stop stop-color="#D1D1D1" offset="50.1961%"></stop>
            <stop stop-color="#ADADAD" offset="100%"></stop>
        </linearGradient>
        <linearGradient x1="71.8399456%" y1="98.871475%" x2="28.1589667%" y2="1.12923283%" id="linearGradient-3">
            <stop stop-color="#848484" offset="0%"></stop>
            <stop stop-color="#989898" offset="50.1961%"></stop>
            <stop stop-color="#848484" offset="100%"></stop>
        </linearGradient>
    </defs>
    <g id="Page-1-Copy-2" stroke="none" stroke-width="1" fill="none" fill-rule="evenodd">
        <g id="Garmentoria-LOGO_mar18" transform="translate(-142.000000, -178.000000)">
            <g id="Group" transform="translate(137.000000, 176.000000)">
                <rect id="Rectangle-path" x="0.365" y="0.22" width="75.837" height="71.479"></rect>
                <circle id="Oval" fill="url(#linearGradient-1)" cx="38.283" cy="35.96" r="33.233"></circle>
                <circle id="Oval" fill="url(#linearGradient-2)" cx="38.283" cy="35.96" r="30.237"></circle>
                <path d="M34.207,34.516 C30.648,33.697 26.799,33.075 22.865,32.384 C19.616,31.813 13.641,31.165 13.171,28.118 C12.704,25.094 15.138,23.568 17.727,23.368 C23.04,22.959 30.561,25.178 34.789,25.695 C35.061,21.796 37.114,19.654 40.993,19.394 C44.571,19.154 48.428,20.674 51.366,21.817 C54.619,23.082 57.267,23.988 59.412,26.47 C63.562,31.273 64.643,40.368 60.769,45.665 C57.95,49.519 52.392,51.551 47.004,52.838 C43.082,53.775 36.601,54.805 37.213,49.154 C35.15,48.438 33.446,47.363 33.723,44.307 C28.967,44.404 21.396,46.283 15.885,45.665 C13.64,45.413 11.287,43.759 12.202,41.012 C13.336,37.602 17.948,37.21 21.896,36.455 C25.879,35.694 30.313,35.107 34.207,34.516 Z" id="Shape" fill="url(#linearGradient-3)"></path>
                <path d="M37.213,34.613 C36.882,35.003 36.219,35.018 35.758,35.098 C29.505,36.182 23.052,36.591 17.436,38.394 C15.799,38.92 13.078,39.768 12.977,41.787 C12.871,43.907 14.922,44.758 16.758,44.889 C22.392,45.293 28.843,43.565 34.013,43.435 C35.089,40.763 37.098,39.023 39.539,37.715 C37.371,35.004 35.261,31.395 34.886,26.567 C30.427,26.043 24.355,24.119 19.084,24.143 C18.108,24.148 16.854,24.205 15.982,24.532 C14.837,24.96 13.551,26.592 14.141,28.312 C14.604,29.663 17.216,30.338 18.891,30.736 C24.824,32.144 31.487,32.775 37.019,34.226 C37.189,34.249 37.24,34.392 37.213,34.613 Z M37.31,48.282 C38.506,44.083 41.268,41.448 45.065,39.848 C45.023,39.244 44.863,38.757 44.58,38.394 C43.474,39.209 41.359,39.061 40.315,38.297 C36.734,39.339 31.344,46.428 37.31,48.282 Z M47.682,47.022 C48.297,46.164 48.915,44.837 49.039,43.726 C49.495,39.675 45.714,40.062 43.417,41.496 C41.287,42.826 37.721,46.391 37.988,49.833 C38.162,52.072 39.925,53.048 42.641,52.838 C45.62,52.609 49.145,51.491 51.851,50.512 C57.352,48.521 61.854,45.448 62.321,38.491 C62.681,33.113 60.81,29.067 58.152,26.374 C56.35,24.547 53.786,23.592 51.172,22.593 C48.523,21.579 45.639,20.481 42.641,20.266 C37.566,19.902 35.339,22.469 35.758,27.149 C36.117,31.144 38.54,36.162 41.09,37.619 C41.342,37.763 41.836,38.289 43.029,38.103 C45.876,37.661 46.006,32.949 44.968,30.639 C44.714,30.074 43.854,29.303 44.483,28.7 C45.24,28.924 45.907,30.215 46.228,31.318 C46.842,33.426 46.428,36.406 45.356,37.522 C46.767,38.161 48.674,38.938 50.688,39.073 C51.31,39.115 52.682,38.723 52.82,39.654 C51.748,40.28 50.16,39.884 48.943,39.654 C48.297,39.533 47.613,39.444 47.101,39.267 C46.545,39.074 46.142,38.626 45.743,38.782 C45.74,39.997 46.941,39.443 47.585,39.557 C50.913,40.146 49.958,45.021 48.652,47.119 C48.107,47.994 47.208,49.289 46.325,48.961 C46.301,48.075 47.219,47.669 47.682,47.022 Z" id="Shape" fill="#FEFEFE"></path>
            </g>
        </g>
    </g>
</svg>